<svg xmlns="http://www.w3.org/2000/svg" width="27.467" height="28.64" viewBox="0 0 27.467 28.64">
  <path id="Subtraction_2" data-name="Subtraction 2" d="M13.734,28.64c-3.706,0-4.194-.017-5.662-.087a9.8,9.8,0,0,1-3.333-.666,6.7,6.7,0,0,1-2.432-1.652A7.041,7.041,0,0,1,.721,23.7a10.973,10.973,0,0,1-.638-3.476C.016,18.693,0,18.184,0,14.32s.016-4.373.083-5.9A10.973,10.973,0,0,1,.721,4.94,7.041,7.041,0,0,1,2.306,2.4,6.7,6.7,0,0,1,4.738.752,9.8,9.8,0,0,1,8.071.087C9.54.017,10.027,0,13.734,0S17.927.017,19.4.087a9.8,9.8,0,0,1,3.333.666A6.707,6.707,0,0,1,25.162,2.4,7.048,7.048,0,0,1,26.745,4.94a10.973,10.973,0,0,1,.638,3.476c.067,1.531.083,2.04.083,5.9s-.016,4.372-.083,5.9a10.973,10.973,0,0,1-.638,3.476,7.048,7.048,0,0,1-1.583,2.536,6.707,6.707,0,0,1-2.433,1.652,9.8,9.8,0,0,1-3.333.666C17.927,28.624,17.439,28.64,13.734,28.64Zm0-26.06c-3.653,0-4.089.015-5.55.084a7.342,7.342,0,0,0-2.55.493A4.238,4.238,0,0,0,4.055,4.228,4.46,4.46,0,0,0,3.028,5.875a8.235,8.235,0,0,0-.473,2.659c-.066,1.523-.08,1.978-.08,5.787s.014,4.263.08,5.786a8.235,8.235,0,0,0,.473,2.659,4.455,4.455,0,0,0,1.027,1.646,4.238,4.238,0,0,0,1.579,1.071,7.342,7.342,0,0,0,2.55.493c1.461.069,1.9.083,5.55.083s4.088-.015,5.549-.083a7.342,7.342,0,0,0,2.55-.493,4.238,4.238,0,0,0,1.579-1.071,4.455,4.455,0,0,0,1.027-1.646,8.235,8.235,0,0,0,.473-2.659c.066-1.523.08-1.978.08-5.786s-.014-4.264-.08-5.787a8.235,8.235,0,0,0-.473-2.659,4.46,4.46,0,0,0-1.027-1.646,4.238,4.238,0,0,0-1.579-1.071,7.342,7.342,0,0,0-2.55-.493C17.822,2.595,17.385,2.58,13.734,2.58Zm0,19.093A7.215,7.215,0,0,1,6.682,14.32a7.216,7.216,0,0,1,7.052-7.353,7.215,7.215,0,0,1,7.051,7.353A7.215,7.215,0,0,1,13.734,21.673Zm0-12.126A4.684,4.684,0,0,0,9.156,14.32a4.683,4.683,0,0,0,4.578,4.772,4.683,4.683,0,0,0,4.578-4.772A4.684,4.684,0,0,0,13.734,9.547Z" fill="#707070"/>
</svg>
