<svg xmlns="http://www.w3.org/2000/svg" width="17.049" height="15.686" viewBox="0 0 17.049 15.686">
  <path id="Path_5" data-name="Path 5" d="M-637.983,22.485h-12.361a2.347,2.347,0,0,0-2.344,2.344v7.565a2.347,2.347,0,0,0,2.336,2.344v3.433l4.933-3.433h7.436a2.347,2.347,0,0,0,2.344-2.344V24.829A2.347,2.347,0,0,0-637.983,22.485Zm1.345,9.909a1.347,1.347,0,0,1-1.345,1.345h-7.75l-3.621,2.52v-2.52h-.991a1.347,1.347,0,0,1-1.345-1.345V24.829a1.346,1.346,0,0,1,1.345-1.345h12.361a1.346,1.346,0,0,1,1.345,1.345Z" transform="translate(652.688 -22.485)" fill="#707070"/>
</svg>
