<svg xmlns="http://www.w3.org/2000/svg" width="24.255" height="29.605" viewBox="0 0 24.255 29.605">
  <path id="Subtraction_3" data-name="Subtraction 3" d="M6.624,29.6h0c-.486-.147-.972-.317-1.444-.5a17.256,17.256,0,0,1,.093-5.151c.334-1.42,2.149-9.021,2.226-9.343v0a6.828,6.828,0,0,1-.568-2.792,5.4,5.4,0,0,1,1-3.264,3.056,3.056,0,0,1,2.433-1.3,2.255,2.255,0,0,1,1.809.783,2.884,2.884,0,0,1,.594,1.866A14.656,14.656,0,0,1,11.9,13.7c-.252.806-.512,1.64-.705,2.449a2.668,2.668,0,0,0,.474,2.322,2.938,2.938,0,0,0,2.338,1.077,5.194,5.194,0,0,0,4.251-2.4A10.868,10.868,0,0,0,19.98,10.94c0-4.5-3.262-7.651-7.933-7.651a9.349,9.349,0,0,0-3.619.692A7.985,7.985,0,0,0,4.052,8.425a8.147,8.147,0,0,0-.58,3.025,7.291,7.291,0,0,0,1.414,4.292.561.561,0,0,1,.132.539c-.079.325-.209.848-.324,1.31v0c-.094.376-.174.7-.2.819-.055.229-.158.336-.325.336a.768.768,0,0,1-.311-.085,6.338,6.338,0,0,1-2.817-3.018A9.925,9.925,0,0,1,0,11.38,11.056,11.056,0,0,1,3.2,3.466,12.884,12.884,0,0,1,12.548,0a12.191,12.191,0,0,1,8.324,3.1,10.434,10.434,0,0,1,3.383,7.76,12.963,12.963,0,0,1-2.779,8.279A9.077,9.077,0,0,1,14.4,22.559a5.118,5.118,0,0,1-4.353-2.16c-.008.032-.941,3.55-1.183,4.471A18.691,18.691,0,0,1,6.625,29.6Z" fill="#707070"/>
</svg>
