<svg xmlns="http://www.w3.org/2000/svg" width="14.875" height="17" viewBox="0 0 14.875 17">
  <path id="user-regular" d="M10.412,10.094c-.953,0-1.411.531-2.975.531s-2.019-.531-2.975-.531A4.464,4.464,0,0,0,0,14.556v.85A1.594,1.594,0,0,0,1.594,17H13.281a1.594,1.594,0,0,0,1.594-1.594v-.85A4.464,4.464,0,0,0,10.412,10.094Zm2.869,5.313H1.594v-.85a2.874,2.874,0,0,1,2.869-2.869,13,13,0,0,0,2.975.531,12.875,12.875,0,0,0,2.975-.531,2.874,2.874,0,0,1,2.869,2.869ZM7.438,9.563A4.781,4.781,0,1,0,2.656,4.781,4.782,4.782,0,0,0,7.438,9.563Zm0-7.969A3.188,3.188,0,1,1,4.25,4.781,3.193,3.193,0,0,1,7.438,1.594Z" fill="#707070"/>
</svg>
