<svg xmlns="http://www.w3.org/2000/svg" width="93.798" height="93.798" viewBox="0 0 93.798 93.798">
  <path id="_5279111_network_fb_social_media_facebook_facebook_logo_icon" data-name="5279111_network_fb_social media_facebook_facebook logo_icon" d="M46.72,93.8h0Zm.331,0h0Zm-.474,0h0Zm.626,0h0Zm-.764,0h0Zm.915,0h0Zm.151,0h0Zm-1.242,0h0Zm1.393,0h0Zm-1.54,0h0Zm1.691,0h0Zm-1.829,0h0Zm-.172,0h0Zm2.152,0h0Zm-2.3,0h0Zm2.453,0h0Zm.151,0h-.037l.058,0h-.021Zm-2.742,0,.058,0h-.058Zm-.132,0h0Zm3.024,0h0Zm.15,0H48.54l.063,0Zm-3.366,0,.063,0h-.063Zm-.137-.005.066,0h-.066Zm3.653,0h-.037l.066,0Zm-3.788-.007.065,0-.051,0h-.014Zm3.938,0-.051,0,.065,0h-.014Zm-4.127-.009.07,0h-.017Zm4.277,0h-.017l.07,0-.053,0ZM44.6,93.742l.072,0h-.034Zm4.562,0h-.034l.072,0Zm-4.7-.009.073,0-.051,0Zm4.845,0-.051,0,.073,0Zm.15-.008-.066,0,.059,0,.069,0-.062,0Zm-5.116,0,.059,0-.066,0-.062,0Zm5.265-.009-.029,0,.074,0Zm-5.467,0,.074,0-.029,0Zm-.132-.008.074,0-.046,0Zm5.749,0-.046,0,.074,0Zm-5.875-.01.067,0-.062,0-.063,0,.058,0Zm6.025,0-.062,0,.067,0,.058,0-.063,0Zm.149-.01h-.022l.071,0-.049,0Zm-6.367,0,.071,0H43.74Zm-.132-.009.07,0-.038,0-.032,0Zm6.648,0-.038,0,.07,0Zm-6.78-.012.064,0-.05,0h-.014Zm6.929,0-.05,0,.064,0Zm-7.106-.014.056,0h-.014Zm7.255,0h-.014l.056,0Zm.149-.012-.027,0,.057,0Zm-7.54,0,.057,0-.027,0Zm-.133-.011.048,0-.034,0Zm7.822,0-.034,0,.048,0Zm-7.968-.014h0Zm8.116,0h0Zm.148-.013h-.013l.033,0Zm-8.421,0,.033,0H42.7l-.02,0Zm-.137-.012.025,0h-.025Zm8.706,0h-.015l.025,0Zm-11.676-.371a46.9,46.9,0,1,1,14.656,0V60.456H65.155L67.234,46.9H54.227V38.1c0-3.709,1.817-7.324,7.643-7.324h5.914V19.236a72.119,72.119,0,0,0-10.5-.916c-10.713,0-17.714,6.493-17.714,18.247V46.9H27.663V60.456H39.571Z" fill="#f8cb33" fill-rule="evenodd"/>
</svg>
