<svg xmlns="http://www.w3.org/2000/svg" width="93.798" height="93.798" viewBox="0 0 93.798 93.798">
  <path id="_5279116_pin_pinterest_inspiration_pinterest_logo_icon" data-name="5279116_pin_pinterest_inspiration_pinterest logo_icon" d="M46.9,0A46.907,46.907,0,0,0,29.808,90.587c-.41-3.711-.781-9.417.163-13.468.852-3.66,5.5-23.312,5.5-23.312a16.929,16.929,0,0,1-1.4-6.963c0-6.521,3.78-11.39,8.486-11.39,4,0,5.934,3,5.934,6.606,0,4.024-2.562,10.04-3.884,15.615-1.1,4.668,2.341,8.475,6.945,8.475,8.336,0,14.743-8.789,14.743-21.476,0-11.229-8.069-19.08-19.59-19.08-13.344,0-21.177,10.009-21.177,20.353a18.241,18.241,0,0,0,3.49,10.7,1.4,1.4,0,0,1,.325,1.345c-.356,1.482-1.147,4.667-1.3,5.319-.2.858-.68,1.041-1.568.627-5.858-2.727-9.52-11.29-9.52-18.169,0-14.794,10.749-28.38,30.988-28.38,16.269,0,28.913,11.593,28.913,27.086,0,16.163-10.191,29.171-24.337,29.171-4.752,0-9.22-2.469-10.749-5.385,0,0-2.352,8.954-2.922,11.149-1.059,4.074-3.917,9.18-5.829,12.295A46.9,46.9,0,1,0,46.9,0Z" transform="translate(0 -0.001)" fill="#f8cb33"/>
</svg>
