<svg xmlns="http://www.w3.org/2000/svg" width="93.798" height="93.798" viewBox="0 0 93.798 93.798">
  <path id="_5279112_camera_instagram_social_media_instagram_logo_icon_1_" data-name="5279112_camera_instagram_social media_instagram logo_icon (1)" d="M46.9,0A46.9,46.9,0,1,1,0,46.9,46.921,46.921,0,0,1,46.9,0Zm0,17.587c-7.961,0-8.959.034-12.085.176A21.517,21.517,0,0,0,27.7,19.126,14.989,14.989,0,0,0,19.126,27.7a21.52,21.52,0,0,0-1.362,7.115c-.143,3.126-.176,4.125-.176,12.085s.034,8.959.176,12.085A21.52,21.52,0,0,0,19.126,66.1,14.989,14.989,0,0,0,27.7,74.672a21.523,21.523,0,0,0,7.115,1.362c3.126.143,4.125.176,12.085.176s8.959-.034,12.085-.176A21.52,21.52,0,0,0,66.1,74.672,14.989,14.989,0,0,0,74.672,66.1a21.52,21.52,0,0,0,1.362-7.115c.143-3.126.176-4.125.176-12.085s-.034-8.959-.176-12.085A21.52,21.52,0,0,0,74.672,27.7,14.989,14.989,0,0,0,66.1,19.126a21.515,21.515,0,0,0-7.115-1.362C55.858,17.621,54.86,17.587,46.9,17.587Zm0,5.281c7.827,0,8.754.03,11.845.171a16.219,16.219,0,0,1,5.443,1.009,9.708,9.708,0,0,1,5.563,5.563,16.214,16.214,0,0,1,1.009,5.443c.141,3.091.171,4.018.171,11.845s-.03,8.754-.171,11.845a16.215,16.215,0,0,1-1.009,5.443,9.708,9.708,0,0,1-5.563,5.563,16.215,16.215,0,0,1-5.443,1.009c-3.09.141-4.017.171-11.845.171s-8.754-.03-11.845-.171a16.215,16.215,0,0,1-5.443-1.009,9.706,9.706,0,0,1-5.563-5.563,16.218,16.218,0,0,1-1.009-5.443c-.141-3.091-.171-4.018-.171-11.845s.03-8.754.171-11.845a16.218,16.218,0,0,1,1.009-5.443,9.706,9.706,0,0,1,5.563-5.563,16.219,16.219,0,0,1,5.443-1.009c3.091-.141,4.018-.171,11.845-.171Zm0,8.978A15.052,15.052,0,1,0,61.951,46.9,15.052,15.052,0,0,0,46.9,31.847Zm0,24.823A9.771,9.771,0,1,1,56.67,46.9,9.771,9.771,0,0,1,46.9,56.67ZM66.063,31.252a3.517,3.517,0,1,1-3.518-3.517A3.517,3.517,0,0,1,66.063,31.252Z" fill="#f8cb33" fill-rule="evenodd"/>
</svg>
